<?xml version="1.0" encoding="UTF-8" standalone="no" ?>
<!DOCTYPE svg PUBLIC "-//W3C//DTD SVG 1.1//EN" "http://www.w3.org/Graphics/SVG/1.1/DTD/svg11.dtd">
<svg xmlns="http://www.w3.org/2000/svg" xmlns:xlink="http://www.w3.org/1999/xlink" version="1.1" width="1080" height="300" viewBox="0 0 1080 300" xml:space="preserve">
<desc>Created with Fabric.js 5.2.4</desc>
<defs>
</defs>
<rect x="0" y="0" width="100%" height="100%" fill="transparent"></rect>
<g transform="matrix(1 0 0 1 540 150)" id="08b7099e-3e86-41b1-a51b-65de727f7fdc"  >
<rect style="stroke: none; stroke-width: 1; stroke-dasharray: none; stroke-linecap: butt; stroke-dashoffset: 0; stroke-linejoin: miter; stroke-miterlimit: 4; fill: rgb(255,255,255); fill-rule: nonzero; opacity: 1; visibility: hidden;" vector-effect="non-scaling-stroke"  x="-540" y="-150" rx="0" ry="0" width="1080" height="300" />
</g>
<g transform="matrix(Infinity NaN NaN Infinity 0 0)" id="1d2aca1b-bee4-45af-a8e6-fb01492ac79c"  >
</g>
<g transform="matrix(1.13 0 0 1.05 541.54 145.24)"  >
<path style="stroke: rgb(0,0,0); stroke-width: 0; stroke-dasharray: none; stroke-linecap: butt; stroke-dashoffset: 0; stroke-linejoin: miter; stroke-miterlimit: 4; fill: rgb(77, 10, 235); fill-rule: nonzero; opacity: 1;" vector-effect="non-scaling-stroke"  transform=" translate(-499.8, -497.97)" d="M 57.2 359.6 L 19.300000000000004 359.6 L 19.300000000000004 477.20000000000005 C 22.300000000000004 479.70000000000005 26.000000000000004 481.6 29.600000000000005 483.40000000000003 C 72.9 505.20000000000005 61.5 549.2 55.2 586.4000000000001 C 52.900000000000006 599.9000000000001 48.800000000000004 613.2 54.1 626.5000000000001 C 60 641.2000000000002 84.2 638.4000000000001 89.7 625.0000000000001 C 93 617.1000000000001 92.10000000000001 608.2000000000002 91.2 599.7000000000002 C 91.2 599.7000000000002 84.2 554.7000000000002 84.2 554.6000000000001 C 81.3 528.2000000000002 89.4 501.3000000000001 100.9 477.70000000000016 C 110.10000000000001 458.70000000000016 128.20000000000002 446.3000000000002 150.2 448.70000000000016 C 165 450.3000000000002 177.89999999999998 458.00000000000017 190.29999999999998 465.70000000000016 C 196.7 469.70000000000016 203.1 473.70000000000016 209.79999999999998 477.10000000000014 C 215.29999999999998 479.90000000000015 221.49999999999997 482.0000000000001 223.7 488.3000000000001 C 226.1 495.2000000000001 222.79999999999998 502.2000000000001 221.39999999999998 508.90000000000015 C 218.89999999999998 520.8000000000002 214.39999999999998 533.5000000000001 221.99999999999997 544.3000000000002 C 225.79999999999998 549.9000000000002 232.49999999999997 553.4000000000002 239.49999999999997 552.6000000000001 C 252.29999999999998 551.1000000000001 258.4 537.4000000000001 256.79999999999995 526.3000000000002 C 255.29999999999995 516.3000000000002 248.49999999999994 505.1000000000002 249.19999999999996 495.1000000000002 C 250.19999999999996 479.9000000000002 260.19999999999993 469.7000000000002 271.9 459.2000000000002 C 281.2 450.7000000000002 297.4 441.30000000000024 310.2 443.6000000000002 C 326 446.50000000000017 334 465.7000000000002 349.8 468.2000000000002 C 368.6 471.30000000000024 382.3 449.4000000000002 401.3 447.1000000000002 C 420.6 444.8000000000002 435 462.7000000000002 452.6 470.50000000000017 C 468.20000000000005 477.50000000000017 487.8 476.1000000000002 502.1 466.8000000000002 C 515.8000000000001 457.9000000000002 526.9 441.9000000000002 543.5 442.9000000000002 C 561.6 444.0000000000002 570.9 464.9000000000002 587.8 471.2000000000002 C 622 483.9000000000002 654.8 430.9000000000002 689.3 442.9000000000002 C 710 450.1000000000002 711.5 476.4000000000002 706.5 496.6000000000002 C 701.5 516.9000000000002 690.5 536.5000000000002 692.7 557.2000000000002 C 694.1 569.8000000000002 704.6 584.7000000000002 718.6 584.2000000000002 C 736 583.5000000000001 743.3000000000001 563.5000000000001 742.7 548.9000000000002 C 741.9000000000001 525.5000000000002 734.1 505.0000000000002 730.3000000000001 481.9000000000002 C 729.5000000000001 477.1000000000002 730.6 469.8000000000002 733.8000000000001 465.8000000000002 C 736.5000000000001 462.3000000000002 741.0000000000001 460.00000000000017 745.5000000000001 459.8000000000002 C 757.6000000000001 459.1000000000002 759.1000000000001 474.20000000000016 756.0000000000001 484.3000000000002 C 752.0000000000001 497.3000000000002 746.1000000000001 510.4000000000002 751.4000000000001 524.2000000000002 C 753.8000000000001 530.4000000000002 759.2 535.4000000000002 766.1000000000001 536.8000000000002 C 781.5000000000001 539.9000000000002 791.4000000000001 523.4000000000002 790.7000000000002 509.70000000000016 C 790.0000000000001 496.00000000000017 782.7000000000002 483.20000000000016 782.5000000000001 469.3000000000002 C 782.5000000000001 466.9000000000002 782.9000000000001 464.50000000000017 784.1000000000001 462.4000000000002 C 789.6000000000001 452.5000000000002 803.8000000000002 456.3000000000002 810.3000000000002 463.0000000000002 C 814.3000000000002 467.2000000000002 814.8000000000002 473.10000000000025 818.8000000000002 477.4000000000002 C 823.5000000000002 482.6000000000002 830.5000000000002 485.9000000000002 837.5000000000002 485.9000000000002 C 854.0000000000002 486.0000000000002 858.8000000000002 471.4000000000002 868.5000000000002 461.3000000000002 C 878.4000000000002 451.00000000000017 893.0000000000002 442.00000000000017 907.7000000000003 447.20000000000016 C 925.0000000000002 453.3000000000002 929.2000000000003 473.8000000000002 934.5000000000002 490.40000000000015 C 939.8000000000002 507.00000000000017 956.3000000000002 525.6000000000001 973.0000000000002 518.2000000000002 C 976.0000000000002 516.9000000000002 978.4000000000002 514.9000000000002 980.3000000000002 512.6000000000001 L 980.3000000000002 359.6 C 980 359.6 57.2 359.6 57.2 359.6 z" stroke-linecap="round" />
</g>
</svg>